<svg width="446" height="85" viewBox="0 0 446 85" fill="none" xmlns="http://www.w3.org/2000/svg">
<line x1="442" y1="30" x2="442" y2="55" stroke="#BCC3CE" stroke-width="2"/>
<line x1="198" y1="10" x2="25" y2="10" stroke="#BCC3CE" stroke-width="2"/>
<line x1="420" y1="10" x2="241" y2="10" stroke="#BCC3CE" stroke-width="2"/>
<line x1="420" y1="78" x2="241" y2="78" stroke="#BCC3CE" stroke-width="2"/>
<path d="M440.666 7.26465H441.678C442.188 7.26009 442.591 7.12793 442.888 6.86816C443.188 6.6084 443.339 6.23242 443.339 5.74023C443.339 5.26628 443.214 4.89941 442.963 4.63965C442.717 4.37533 442.339 4.24316 441.828 4.24316C441.382 4.24316 441.015 4.37305 440.728 4.63281C440.44 4.88802 440.297 5.22298 440.297 5.6377H438.636C438.636 5.12728 438.77 4.66243 439.039 4.24316C439.312 3.82389 439.691 3.49805 440.174 3.26562C440.661 3.02865 441.206 2.91016 441.808 2.91016C442.801 2.91016 443.58 3.16081 444.146 3.66211C444.715 4.15885 445 4.85156 445 5.74023C445 6.18685 444.856 6.6084 444.569 7.00488C444.287 7.39681 443.92 7.69303 443.469 7.89355C444.016 8.0804 444.43 8.37435 444.713 8.77539C445 9.17643 445.144 9.65495 445.144 10.2109C445.144 11.1042 444.836 11.8151 444.221 12.3438C443.61 12.8724 442.806 13.1367 441.808 13.1367C440.851 13.1367 440.067 12.8815 439.456 12.3711C438.845 11.8607 438.54 11.1816 438.54 10.334H440.201C440.201 10.7715 440.347 11.127 440.639 11.4004C440.935 11.6738 441.331 11.8105 441.828 11.8105C442.343 11.8105 442.749 11.6738 443.045 11.4004C443.341 11.127 443.489 10.7305 443.489 10.2109C443.489 9.68685 443.334 9.28353 443.024 9.00098C442.715 8.71842 442.254 8.57715 441.644 8.57715H440.666V7.26465Z" fill="#BCC3CE"/>
<path d="M444.364 77.4521H445.602V78.7852H444.364V81H442.703V78.7852H438.403L438.355 77.7734L442.648 71.0469H444.364V77.4521ZM440.099 77.4521H442.703V73.2959L442.58 73.5146L440.099 77.4521Z" fill="#BCC3CE"/>
<path d="M217.189 76.0645L217.729 71.0469H223.075V72.4824H219.11L218.837 74.8613C219.297 74.597 219.817 74.4648 220.396 74.4648C221.343 74.4648 222.079 74.7679 222.604 75.374C223.132 75.9801 223.396 76.7959 223.396 77.8213C223.396 78.833 223.105 79.6396 222.521 80.2412C221.938 80.8382 221.138 81.1367 220.122 81.1367C219.211 81.1367 218.454 80.8792 217.853 80.3643C217.256 79.8447 216.932 79.1611 216.882 78.3135H218.488C218.552 78.7965 218.725 79.168 219.008 79.4277C219.29 79.6829 219.66 79.8105 220.115 79.8105C220.626 79.8105 221.022 79.6283 221.305 79.2637C221.592 78.8991 221.735 78.4023 221.735 77.7734C221.735 77.1673 221.578 76.6888 221.264 76.3379C220.949 75.9824 220.516 75.8047 219.965 75.8047C219.664 75.8047 219.409 75.8457 219.199 75.9277C218.99 76.0052 218.762 76.1602 218.516 76.3926L217.189 76.0645Z" fill="#BCC3CE"/>
<path d="M223.438 13H216.745V11.8584L220.061 8.24219C220.539 7.70898 220.879 7.26465 221.079 6.90918C221.284 6.54915 221.387 6.18913 221.387 5.8291C221.387 5.35514 221.252 4.97233 220.983 4.68066C220.719 4.389 220.361 4.24316 219.91 4.24316C219.372 4.24316 218.955 4.40723 218.659 4.73535C218.363 5.06348 218.215 5.51237 218.215 6.08203H216.554C216.554 5.47591 216.69 4.93132 216.964 4.44824C217.242 3.96061 217.636 3.58236 218.146 3.31348C218.661 3.0446 219.254 2.91016 219.924 2.91016C220.89 2.91016 221.651 3.15397 222.207 3.6416C222.768 4.12467 223.048 4.7946 223.048 5.65137C223.048 6.14811 222.907 6.66992 222.624 7.2168C222.346 7.75911 221.888 8.37663 221.25 9.06934L218.816 11.6738H223.438V13Z" fill="#BCC3CE"/>
<path d="M5.24316 13H3.58887V5.00879L1.14844 5.84277V4.44141L5.03125 3.0127H5.24316V13Z" fill="#BCC3CE"/>
</svg>
