<svg width="1440" height="810" viewBox="0 0 1440 810" fill="none" xmlns="http://www.w3.org/2000/svg">
<g clip-path="url(#clip0)">
<rect y="405" width="1440" height="405" fill="white"/>
<path d="M861.3 405L485.1 810H1256.4L861.3 405Z" fill="#32702B"/>
<path d="M861.3 405L785.61 810H1256.4L861.3 405Z" fill="#37873B"/>
<path d="M-54 810L358.2 595.8L734.4 810H-54Z" fill="#3A7B39"/>
<path d="M303.3 810L358.2 595.8L734.4 810H303.3Z" fill="#348F47"/>
<path d="M1082.7 491.4L1396.8 810H788.4L1082.7 491.4Z" fill="#438748"/>
<path d="M1082.7 491.4L1396.8 810H1045.8L1082.7 491.4Z" fill="#309754"/>
<path d="M576.9 625.5L797.4 810H330.3L576.9 625.5Z" fill="#4B9256"/>
<path d="M528.3 810L576.9 625.5L797.4 810H528.3Z" fill="#2C9F61"/>
<path d="M1539 810L1260.9 568.8L986.4 810H1539Z" fill="#549E64"/>
<path d="M1539 810L1260.9 568.8L1228.5 810H1539Z" fill="#26A76E"/>
<path d="M1089 810L873.9 618.3L652.5 810H1089Z" fill="#5DAA73"/>
<path d="M848.7 810H1089L873.9 618.3L848.7 810Z" fill="#1EAF7B"/>
</g>
<path d="M358 594.5L485 668C455.208 687.277 243.864 685.885 220 667.5L358 594.5Z" fill="#F8F8F8"/>
<path d="M861.5 404.5L931 476.5C915.399 495.86 803.497 498.964 791 480.5L861.5 404.5Z" fill="#F8F8F8"/>
<path d="M1082.5 491L1153 562.5C1137.4 581.86 1027 583.464 1014.5 565L1082.5 491Z" fill="#F8F8F8"/>
<defs>
<clipPath id="clip0">
<rect width="1440" height="810" fill="white"/>
</clipPath>
</defs>
</svg>
